<?xml version="1.0" ?><!DOCTYPE svg  PUBLIC '-//W3C//DTD SVG 1.1//EN'  'http://www.w3.org/Graphics/SVG/1.1/DTD/svg11.dtd'><svg height="512" width="512" enable-background="new 0 0 50 50" id="Layer_1" version="1.1" viewBox="0 0 50 50" xml:space="preserve" xmlns="http://www.w3.org/2000/svg" xmlns:xlink="http://www.w3.org/1999/xlink"><g id="Droid"><path d="M17,19.5v13c0,0,0.2,1,1,1h2l0,4.1c0,1.9,2,1.9,2,1.9s2,0,2-2v-4h1h1v4c0,2,2,2,2,2   s2,0,2-1.9l0-4.1h2c0.8,0,1-1,1-1v-13h-8H17z" fill="#B3C833" id="bottom_and_foot"/><path d="M36,19.5c-1.1,0-2,0.9-2,2v7c0,1.1,0.9,2,2,2s2-0.9,2-2v-7C38,20.4,37.1,19.5,36,19.5z" fill="#B3C833" id="Right_hand"/><path d="M14,19.5c-1.1,0-2,0.9-2,2v7c0,1.1,0.9,2,2,2s2-0.9,2-2v-7C16,20.4,15.1,19.5,14,19.5z" fill="#B3C833" id="Left_hand"/><path d="M33,11c0-0.3-0.2-0.5-0.5-0.5c-0.2,0-0.3,0.1-0.4,0.2L30,12.8c-1.3-0.8-3-1.3-5-1.3   c-2,0-3.7,0.5-5,1.3l-2.1-2.1c-0.1-0.1-0.2-0.2-0.4-0.2c-0.3,0-0.5,0.2-0.5,0.5c0,0.1,0.1,0.3,0.2,0.4l2,2.1   c-1.4,1.3-2.2,3-2.2,5.1h16c0-2-0.8-3.8-2.2-5.1l2-2.1C32.9,11.3,33,11.2,33,11z M21,16.5c-0.6,0-1-0.4-1-1s0.4-1,1-1s1,0.4,1,1   S21.6,16.5,21,16.5z M29,16.5c-0.6,0-1-0.4-1-1s0.4-1,1-1s1,0.4,1,1S29.6,16.5,29,16.5z" fill="#B3C833" id="Head"/></g><path d="M25,1C11.7,1,1,11.7,1,25s10.7,24,24,24s24-10.7,24-24S38.3,1,25,1z M25,44C14.5,44,6,35.5,6,25S14.5,6,25,6  s19,8.5,19,19S35.5,44,25,44z" fill="#B3C833"/></svg>