<?xml version="1.0" encoding="utf-8"?>
<!-- Svg Vector Icons : http://www.sfont.cn -->
<!DOCTYPE svg PUBLIC "-//W3C//DTD SVG 1.1//EN" "http://www.w3.org/Graphics/SVG/1.1/DTD/svg11.dtd">
<svg height="512" width="512" version="1.1" xmlns="http://www.w3.org/2000/svg" xmlns:xlink="http://www.w3.org/1999/xlink" x="0px" y="0px" viewBox="0 0 1000 1000" enable-background="new 0 0 1000 1000" xml:space="preserve">
<metadata> Svg Vector Icons : http://www.sfont.cn </metadata>
<g><g transform="translate(0.000000,512.000000) scale(0.100000,-0.100000)"><path d="M1751.1,4987.7c-138-46-243.4-124.6-312.4-230c-124.6-185.9-115,149.5-111.2-4678.7l5.7-4398.9l49.8-107.3c63.2-136.1,166.7-239.6,302.8-302.9l107.3-49.8h3210.5h3210.5l107.3,49.8c136.1,63.3,239.6,166.8,302.9,302.9l49.8,107.3V117.2v4437.2l-49.8,107.3c-63.3,136.1-166.8,239.6-302.9,302.8l-107.3,49.8l-3181.8,3.8C2009.9,5022.1,1845,5022.1,1751.1,4987.7z M7763.9,270.6v-3833.5H5003.8H2243.7V270.6v3833.5h2760.1h2760.1V270.6z M5170.6-3919.4c99.7-74.8,130.3-136.1,130.3-256.9c0-185.9-111.2-297.1-297.1-297.1c-176.3,0-287.5,103.5-302.8,281.8c-7.7,118.8,36.4,203.2,149.5,279.8c55.6,38.3,84.3,44.1,168.7,38.3C5078.6-3879.1,5141.8-3898.3,5170.6-3919.4z"/></g></g>
</svg>