<?xml version="1.0" ?><svg height="512" width="512" style="enable-background:new 0 0 64 64;" version="1.1" viewBox="0 0 64 64" xml:space="preserve" xmlns="http://www.w3.org/2000/svg" xmlns:xlink="http://www.w3.org/1999/xlink"><style type="text/css">
	.st0{fill:#0072FF;}
</style><g id="GUIDES_64"/><g id="Layer_3"/><g id="Layer_2"><path class="st0" d="M33.3,30h20.9c1,0,1.8-0.8,1.8-1.8V10.1c0-1.1-1-2-2.1-1.8L33,11.3c-0.9,0.1-1.6,0.9-1.6,1.8v15.1   C31.4,29.2,32.2,30,33.3,30z"/><path class="st0" d="M25.3,12.4L9.6,14.5C8.7,14.7,8,15.4,8,16.4l0,11.8c0,1,0.8,1.8,1.8,1.8h15.7c1,0,1.8-0.8,1.8-1.8v-14   C27.4,13.1,26.4,12.2,25.3,12.4z"/><path class="st0" d="M9.6,49.6l15.7,2.2c1.1,0.2,2.1-0.7,2.1-1.8V35.8c0-1-0.8-1.8-1.8-1.8H9.9c-1,0-1.8,0.8-1.8,1.8l0,12   C8,48.7,8.7,49.5,9.6,49.6z"/><path class="st0" d="M31.4,51c0,0.9,0.7,1.7,1.6,1.8l20.9,3C55,55.9,56,55.1,56,54l0-18.1c0-1-0.8-1.8-1.8-1.8H33.3   c-1,0-1.8,0.8-1.8,1.8V51z"/></g></svg>